<?xml version="1.0" encoding="UTF-8" standalone="no"?>
<svg
   xmlns:osb="http://www.openswatchbook.org/uri/2009/osb"
   xmlns:dc="http://purl.org/dc/elements/1.1/"
   xmlns:cc="http://creativecommons.org/ns#"
   xmlns:rdf="http://www.w3.org/1999/02/22-rdf-syntax-ns#"
   xmlns:svg="http://www.w3.org/2000/svg"
   xmlns="http://www.w3.org/2000/svg"
   xmlns:xlink="http://www.w3.org/1999/xlink"
   xmlns:sodipodi="http://sodipodi.sourceforge.net/DTD/sodipodi-0.dtd"
   xmlns:inkscape="http://www.inkscape.org/namespaces/inkscape"
   inkscape:version="1.0 (4035a4fb49, 2020-05-01)"
   sodipodi:docname="Youtube.svg"
   xml:space="preserve"
   viewBox="0 0 176 124"
   y="0px"
   x="0px"
   id="Layer_1"
   version="1.1"
   width="176"
   height="124"><metadata
   id="metadata15"><rdf:RDF><cc:Work
       rdf:about=""><dc:format>image/svg+xml</dc:format><dc:type
         rdf:resource="http://purl.org/dc/dcmitype/StillImage" /><dc:title></dc:title></cc:Work></rdf:RDF></metadata><defs
   id="defs13"><linearGradient
     id="linearGradient2783"
     inkscape:collect="always"><stop
       id="stop2779"
       offset="0"
       style="stop-color:#000000;stop-opacity:1;" /><stop
       id="stop2781"
       offset="1"
       style="stop-color:#000000;stop-opacity:0;" /></linearGradient><linearGradient
     osb:paint="solid"
     id="linearGradient842"><stop
       id="stop840"
       offset="0"
       style="stop-color:#000000;stop-opacity:1;" /></linearGradient><linearGradient
     gradientUnits="userSpaceOnUse"
     y2="96"
     x2="184"
     y1="96"
     x1="8"
     id="linearGradient2787"
     xlink:href="#linearGradient2783"
     inkscape:collect="always" /></defs><sodipodi:namedview
   inkscape:current-layer="g8"
   inkscape:window-maximized="1"
   inkscape:window-y="-8"
   inkscape:window-x="1358"
   inkscape:cy="88.574393"
   inkscape:cx="88"
   inkscape:zoom="3.0104167"
   showgrid="false"
   id="namedview11"
   inkscape:window-height="745"
   inkscape:window-width="1366"
   inkscape:pageshadow="2"
   inkscape:pageopacity="0"
   guidetolerance="10"
   gridtolerance="10"
   objecttolerance="10"
   borderopacity="1"
   bordercolor="#666666"
   pagecolor="#ffffff"
   inkscape:document-rotation="0"
   fit-margin-top="0"
   fit-margin-left="0"
   fit-margin-right="0"
   fit-margin-bottom="0" />
<style
   id="style2"
   type="text/css">
	.st0{fill:#EE3124;}
	.st1{fill:#FFFFFF;}
</style>
<g
   style="fill:#000000;fill-opacity:0.342742;fill-rule:evenodd"
   id="g8"
   transform="translate(-8,-34)">
	<path
   style="fill:#656565;fill-opacity:1;fill-rule:evenodd"
   id="path4"
   d="m 180.3,53.4 c -2,-7.6 -8,-13.6 -15.6,-15.7 C 151,34 96,34 96,34 c 0,0 -55,0 -68.8,3.7 -7.6,2 -13.5,8 -15.6,15.7 C 8,67.2 8,96 8,96 c 0,0 0,28.8 3.7,42.6 2,7.6 8,13.6 15.6,15.7 C 41,158 96,158 96,158 c 0,0 55,0 68.8,-3.7 7.6,-2 13.5,-8 15.6,-15.7 C 184,124.8 184,96 184,96 c 0,0 0,-28.8 -3.7,-42.6 z"
   class="st0" />
	<polygon
   style="fill:#999999;fill-opacity:1;fill-rule:evenodd"
   id="polygon6"
   points="78,122.2 78,69.8 124,96 "
   class="st1" />
</g>
</svg>
